# xmcd
#
# Track frame offsets:
#	150
#	3174
#	28340
#	51385
#	66885
#	85442
#	106094
#	134273
#	157941
#	179593
#
# Disc length: 2607 seconds
# Revision: 0
# Processed by: cddbd v1.5.2PL0 Copyright (c) Steve Scherf et al.
# Submitted via: dBpowerAMP V12.0
#
DISCID=810a2d0a
DTITLE=Martriden - The Unsettling Dark
DYEAR=2008
DGENRE=Metal
TTITLE0=Intro
TTITLE1=The Enigma of Fate
TTITLE2=The Calling
TTITLE3=Ascension Part 1
TTITLE4=Ascension Part 2
TTITLE5=Processional for the Hellfire Chariot
TTITLE6=The Unsettling Dark
TTITLE7=Prelude
TTITLE8=A Season in Hell
TTITLE9=Immaculate Perception
EXTD=
EXTT0=
EXTT1=
EXTT2=
EXTT3=
EXTT4=
EXTT5=
EXTT6=
EXTT7=
EXTT8=
EXTT9=
PLAYORDER=
